Patient4_TMGait_0pt5_01_right_31_EMG.mot
version=1
nRows=23
nColumns=33
inDegrees=no
endheader
time	1LAddLong	2LGlutMax	3LGlutMed	4LIliopsoas	5LSemiMemb	6LBicFemLong	7LRecFem	8LVastMed	9LVastLat	10LGasMed	11LTibAnt	12lTibPost	13LPeroneusLong	14LSol	15LExtDigLong	16LFlexDigLong	17RAddLong	18RGlutMax	19RGlutMed	20RIliopsoas	21RSemiMemb	22RBicFemLong	23RRecFem	24RVastMed	25RVastLat	26RGasMed	27RTibAnt	28RTibPost	29RPeroneusLong	30RSol	31RExtDigLong	32RFlexDigLong
41.212	-0.006866	-0.093842	-0.001526	0.020905	-0.00473	0.022125	0.076904	0.022278	0.029449	0.066376	-0.11444	-0.008392	-0.15564	0.013733	0.11765	0.011749	-0.03006	-0.38925	-1.2758	0.046997	0.06485	-0.059204	0.081024	0.092316	-0.34683	0.006409	-0.030518	-0.015869	0.009918	0.027771	0.001068	-0.034027
41.213	-0.006409	-0.045166	0.010071	0.041504	-0.004883	-0.001068	0.11414	0.017853	0.056763	0.035706	-0.10834	-0.005798	-0.16769	-0.025635	0.19486	0.025787	0.002747	-0.63629	-0.10422	-0.053406	0.12222	-0.32898	0.2623	0.14618	-0.44968	-0.014038	-0.024261	-0.016937	0.13382	0.055847	0.005646	-0.031128
41.214	-0.007019	-0.01236	0.014496	0.041046	-0.003967	-0.013275	0.078888	0.006866	0.089569	0.074158	-0.076904	-0.002441	-0.1828	-0.052643	0.34088	0.016479	0.025024	-0.83649	1.3611	-0.097961	0.13901	-0.33844	0.36224	0.16922	-0.43091	-0.020447	0.013428	-0.016327	0.087891	0.034485	-0.003815	-0.030212
41.215	0	-0.001984	0.00061	0.006866	-0.002899	-0.002747	0.094452	0.003204	0.11185	0.06897	0.24872	-0.005646	-0.19943	0.013428	0.5249	0.00061	0.025177	-0.87982	0.37415	-0.056915	-0.095673	-0.22873	0.49805	0.1506	-0.26001	-0.025787	0.009766	-0.015411	-0.029755	-0.071259	-0.006866	-0.026855
41.216	0.00946	0.007019	-0.024414	-0.012817	0.005646	-0.007019	0.073547	0.007172	0.11231	-0.002747	0.60257	-0.002289	-0.13184	0.41092	0.27557	0.005798	0.027313	-0.87082	0.19669	-0.009766	-0.37689	-0.18524	0.439	0.07843	-0.17929	-0.029449	0.007629	-0.013275	0.03479	-0.076752	-0.003052	-0.027313
41.217	0.013275	0.050812	-0.018768	-0.020599	0.014496	-0.024567	0.068207	0.004425	0.1181	-0.050507	0.85113	-0.000153	-0.14648	0.56778	-0.068359	0.010529	0.010071	-0.97427	-0.046997	-0.036774	-0.63858	-0.037384	0.30106	-0.007782	-0.12497	0.004272	-0.013123	-0.01358	0.048218	0.00473	-0.002594	-0.015411
41.218	0.016022	0.060577	-0.035858	-0.01358	0.014648	0.015411	0.051575	0.004272	0.13229	-0.065002	0.4509	0.002136	-0.14496	0.39459	0.046692	0.015106	-0.012817	-1.2177	-0.71747	-0.05722	0.060272	-0.025635	0.23743	-0.10819	-0.12207	0.04303	0.010376	0.005646	0.075684	0.12787	-0.001831	-0.024719
41.219	0.005188	0.070496	-0.047913	0.010223	0.016022	0.014496	0.040283	-0.00412	0.1297	-0.059967	-0.18478	0.005493	-0.061035	0.29587	0.45898	0.006561	-0.06958	-1.4235	-1.8956	-0.062103	0.43121	0.011749	0.18478	-0.053558	-0.12299	0.021362	0.029144	0.014038	0.001831	0.20935	-0.00412	-0.029144
41.22	0.007935	0.096588	-0.0354	0.028229	0.012207	-0.012665	0.068512	-0.002441	0.15762	-0.049591	0.009155	0.007019	-0.037384	0.27908	-0.49698	0.000763	-0.033264	-1.3683	-1.9478	-0.11643	0.31403	-0.098114	0.26138	-0.024414	-0.076904	0.023346	0.016022	0.006866	-0.045624	0.14053	-0.003967	-0.014801
41.221	0.001221	0.10346	-0.08255	0.015717	0.016479	-0.022278	0.098572	0.005341	0.17258	-0.050049	-0.024872	0.000763	-0.029297	0.26123	-0.83374	0.011902	-0.006561	-1.3043	-0.23743	-0.041962	0.20294	-0.22675	0.28366	0.017548	-0.000763	0.051575	0.015869	-0.030212	-0.40695	-0.007782	0.000763	-0.013733
41.222	-0.002594	0.072479	-0.044403	-0.001526	0.0177	-0.020447	0.087585	-0.00351	0.18082	-0.040894	-0.050201	-0.002441	-0.03006	0.1506	-0.24292	-0.00946	0.015411	-1.4034	0.079498	0.076447	0.2124	-0.30792	0.34607	0.034485	0.058441	0.042572	0.047302	-0.069275	-1.1534	-0.2977	0	-0.022278
41.223	0.000305	0.082703	-0.048676	0.00061	0.015259	-0.005188	0.13138	-0.001068	0.1831	-0.048218	-0.23697	-0.001831	-0.009918	0.079041	0.4129	0.013885	0.04364	-1.3628	-0.040894	0.12848	0.17227	-0.3302	0.45517	0.18372	-0.018921	-0.004272	0.093689	-0.2153	-1.396	-0.49622	-0.001984	-0.026855
41.224	-0.001526	0.080566	-0.089264	0.008087	0.004425	-0.006866	0.1503	0.002136	0.19379	-0.040283	-0.29587	-0.009918	-0.12375	0.098877	0.10544	0.001678	0.054932	-1.3908	-0.88745	0.22125	-0.090637	-0.17029	0.51727	0.22446	-0.14755	-0.06546	0.054474	-0.33447	-0.60532	-0.23239	-0.002136	-0.028381
41.225	-0.006866	0.060272	-0.070953	0.019836	0.011444	-0.010834	0.20798	0.002136	0.18249	-0.016785	-0.20218	0.001373	-0.21149	0.14648	0.097961	-0.00412	0.040741	-1.272	0.513	0.11063	-0.29236	-0.049438	0.56183	0.13855	-0.2298	-0.068054	0.016785	0.1236	0.28625	-0.37094	-0.00061	-0.023804
41.226	-0.015869	0.043488	-0.078735	0.007782	0.015411	-0.001831	0.26566	-0.002289	0.17777	-0.042419	-0.24857	-0.003815	-0.18249	0.14801	-0.5014	-0.008545	0.036774	-1.0735	0.57663	0.14221	-0.070038	-0.12253	0.56122	0.12238	-0.27603	-0.0354	-0.037994	-0.22476	0.74036	-1.0275	-0.005341	-0.03891
41.227	-0.019836	0.053406	-0.091248	0.013123	0.010223	-0.008087	0.29282	-0.003967	0.17136	-0.090027	-0.31845	-0.00351	-0.037231	0.14145	-0.38589	0.006409	0.053253	-0.99182	-0.21454	0.068054	0.092621	-0.23056	0.57861	0.091248	-0.19684	-0.028534	-0.018005	0.18463	0.27252	-0.90241	-0.005798	-0.02182
41.228	-0.017395	0.054474	-0.11337	0.007019	0.011139	0.009918	0.34073	0.001068	0.16129	-0.12268	-0.31082	0.004425	0.006561	0.12222	-0.47791	0.003204	0.003967	-0.83298	-0.39993	-0.028687	-0.080109	-0.1799	0.55847	0.044861	-0.026398	-0.012207	-0.022125	-0.049286	0.26352	0.26733	-0.001678	-0.023804
41.229	-0.011139	0.090179	-0.10788	0.015106	0.006714	0.010071	0.31723	0.003815	0.1535	-0.070496	-0.067444	0.001831	-0.095062	0.11414	0.048676	-0.008392	-0.062256	-0.71152	-0.26932	-0.064545	-0.19791	-0.046692	0.4097	-0.13565	0.098114	-0.011597	-0.000305	0.052338	0.24811	0.90866	-0.002289	-0.020447
41.23	-0.0177	0.089264	-0.11612	0.010986	0.003967	0.016327	0.30685	0.005341	0.15442	-0.02243	0.13321	-0.002899	-0.21545	-0.024414	-0.23499	-0.013123	-0.053558	-0.56366	-0.19089	0.013733	-0.1976	0.002899	0.099792	-0.32913	0.15625	0.009308	0.033417	0.51788	0.14099	1.0805	-0.002747	-0.014343
41.231	-0.006561	0.079651	-0.11704	0.010529	0.00885	0.035706	0.33691	-0.001678	0.18036	-0.041809	-0.12634	0	-0.1532	-0.20447	-0.34332	-0.005646	0.005951	-0.48019	-0.31082	0.036774	-0.095825	-0.042114	0.14313	-0.2301	0.41397	0.010529	0.007324	0.26108	0.087585	0.8464	-0.001526	-0.011749
41.232	-0.002747	0.078888	-0.083466	0.003357	0.000763	0.012512	0.27313	-0.000153	0.2034	-0.093689	0.034637	-0.001984	-0.08255	-0.20508	-0.40375	0.007019	0.034943	-0.40604	-0.55054	-0.025177	-0.064087	-0.14206	-0.15152	-0.21301	0.61874	-0.02594	0.003052	0.039978	0.10864	0.1088	-0.007935	-0.003204
41.233	-0.007477	0.10437	-0.09079	-0.005188	-0.005341	0.017242	0.17258	0.003662	0.19302	-0.089722	0.027313	-0.005035	-0.082245	-0.16159	0.58762	0.004578	-0.012207	-0.31479	-0.14206	-0.095062	-0.12466	-0.019836	-0.60318	-0.3685	0.39566	-0.039063	-0.019989	0.005646	-0.036163	-0.13016	-0.002136	-0.007019
41.234	-0.002747	0.10834	-0.0914	0.001221	-0.009308	0.015717	0.056	0.00473	0.15701	-0.05188	-0.035553	0.000916	-0.15732	-0.22934	-0.47424	-0.009155	-0.041504	-0.2713	0.54565	-0.11963	-0.085754	-0.084839	-0.29602	-0.39124	0.50186	-0.021667	0.066986	-0.0383	-0.12466	-0.13229	0	-0.002289
